<?xml version="1.0" encoding="utf-8"?>
<?xml-stylesheet type="text/xsl" href="rss1.xsl"?>
<rss version="2.0" xmlns:atom="http://www.w3.org/2005/Atom" xmlns:content="http://purl.org/rss/1.0/modules/content/" xmlns:dc="http://purl.org/dc/elements/1.1/" xmlns:media="http://search.yahoo.com/mrss/">
<channel>
 <title>Getty</title>
 <link>http://www.gettyimg.com/</link>
 <atom:link href="http://www.gettyimg.com/" rel="self" type="application/rss+xml" />

 
                <item>
                <title><![CDATA[【Requests】[REQ AUD] - Culture Code, Alexis Donn - You &amp; I (2021)]]></title>
                <link><![CDATA[https://sharemania.us/threads/culture-code-alexis-donn-you-i-2021.224998/]]></link>
                <description><![CDATA[<article>
<blockquote class="messageText SelectQuoteContainer ugc baseHtml">
Reuquest this song in lossless<br>
<a href="https://www.deezer.com/en/track/1733665887?autoplay=true&amp;deferredFl=1&amp;utm_campaign=track&amp;utm_source=google&amp;utm_medium=organic" target="_blank" class="externalLink" rel="nofollow">https://www.deezer.com/en/track/173...gn=track&amp;utm_source=google&amp;utm_medium=organic</a><br>
<img src="https://encrypted-tbn0.gstatic.com/images?q=tbn:ANd9GcRySdgNAEkSEZJmkxN8XedkhnbDvaZcyiWRMQ&amp;usqp=CAU" class="bbCodeImage LbImage" alt="[​IMG]" data-url="https://encrypted-tbn0.gstatic.com/images?q=tbn:ANd9GcRySdgNAEkSEZJmkxN8XedkhnbDvaZcyiWRMQ&amp;usqp=CAU" style=""> <br>
<br>
Thanks
<div class="messageTextEndMarker">&nbsp;</div>
</blockquote>
</article>]]></description>
                <author><![CDATA[yoyon]]></author>
                </item>

                
                <item>
                <title><![CDATA[【UPSCALED】Aretha Franklin - (You Make Me Feel Like) A Natural Woman (Live @ 2015 KCHonors) [4K AI Upscale HEVC 10-bit | PCM 24-bit 88.2 kHz]]]></title>
                <link><![CDATA[https://sharemania.us/threads/aretha-franklin-you-make-me-feel-like-a-natural-woman-live-2015-kchonors-4k-ai-upscale-hevc-10-bit-pcm-24-bit-88-2-khz.224997/]]></link>
                <description><![CDATA[<article>
<blockquote class="messageText SelectQuoteContainer ugc baseHtml">
<b><img src="https://images2.imgbox.com/68/03/Is0yonFm_o.jpg" class="bbCodeImage LbImage" alt="[​IMG]" data-url="https://images2.imgbox.com/68/03/Is0yonFm_o.jpg" style=""> <br>
<img src="https://images2.imgbox.com/44/61/dzwvfHs3_o.jpg" class="bbCodeImage LbImage" alt="[​IMG]" data-url="https://images2.imgbox.com/44/61/dzwvfHs3_o.jpg" style=""> <br>
<br>
Genre: <span style="color: #0059b3">Funk / Soul</span> <br>
Style: <span style="color: #0059b3">Soul</span> <br>
Year: <span style="color: #0059b3">1967`(this performance: 2015)</span><br>
Video Source: <span style="color: #0059b3">HDTV 1080i, thanks meloman67</span><br>
Audio Source: <span style="color: #0059b3">Qobuz Hi-Res &amp; HDTV (DD 5.1)</span></b><br>
<br>
"<b>(You Make Me Feel Like) A Natural Woman</b>" is a 1967 song by American soul singer Aretha Franklin released as a single by the Atlantic label. The words were written by Gerry Goffin from an idea by Atlantic producer Jerry Wexler, and the music was composed by Carole King. Written for Franklin, the record was a big hit reaching number 8 on the <i>Billboard</i> Hot 100, and became one of her signature songs. It made history in the UK singles chart a week after her death, finally becoming a hit almost 51 years after it was first released entering at #79.<br>
Carole King herself recorded the song for her 1971 album <i>Tapestry</i>. The numerous cover versions of the song include recordings by Mary J. Blige and Celine Dion, both of which charted in the same year (1995).<br>
<br>
Written by the partnership of Gerry Goffin and Carole King, the song was inspired by Atlantic Records co-owner and producer Jerry Wexler. As recounted in his autobiography, Wexler, a student of African-American musical culture, had been mulling over the concept of the "natural man", when he drove by King on the streets of New York. He shouted out to her that he wanted a "natural woman" song for Aretha Franklin's next album. Goffin and King went home and wrote the song that night. In thanks, they granted Wexler a co-writing credit.<br>
<br>
At the 2015 Kennedy Center Honors, Aretha Franklin performed the song to honor award-recipient Carole King. The Kennedy Center Honors are given annually to select performing artists for their lifetime of contributions to American culture.<br>
The songwriter’s visible reaction, capture on video alongside fellow attendee Barack Obama’s, was almost as priceless as the Queen of Soul’s performance itself.<br>
<br>
<b>Release Info</b><br>
The video track is upscaled from 1080i to 4K 60 fps with Topaz Video AI and encoded to HEVC 10-bit.<br>
The PCM track is lossless (Qobuz HiRes, 24-bit 88.2 kHz), synced with Adobe Audition.<br>
The AC3 track is lossy (Dolby Digital 5.1) and is the original HDTV track.<br>
The timed lyrics are synced and edited to match the music video.<br>
Enable the subtitles to see the lyrics.<br>
<br>
<div class="ToggleTriggerAnchor bbCodeSpoilerContainer">
<button type="button" class="button bbCodeSpoilerButton ToggleTrigger Tooltip JsOnly" data-target="> .SpoilerTarget"><span>Spoiler: <span class="SpoilerTitle">Media Info</span></span></button>
<div class="SpoilerTarget bbCodeSpoilerText">
<div class="bbCodeBlock bbCodeCode">
<div class="type">Code:</div>
<pre>General
Unique ID                      : 280729497483236702677559423682608585233 (0xD33288D81C1F6070E56C214CA3075A11)
Complete name                  : Aretha Franklin - (You Make Me Feel Like) A Natural Woman (Live at the 2015 Kennedy Center Honors).mkv
Format                         : Matroska
Format version                 : Version 4 / Version 2
File size                      : 1 012 MiB
Duration                       : 3 min 51 s
Overall bit rate               : 36.7 Mb/s
Frame rate                     : 59.940 FPS
Encoded date                   : 2023-07-21 22:27:48 UTC
Writing application            : mkvmerge v76.0 ('Celebration') 64-bit
Writing library                : libebml v1.4.4 + libmatroska v1.7.1

Video
ID                             : 1
Format                         : HEVC
Format/Info                    : High Efficiency Video Coding
Format profile                 : Main 10@L5.1@Main
Codec ID                       : V_MPEGH/ISO/HEVC
Duration                       : 3 min 50 s
Bit rate                       : 31.8 Mb/s
Width                          : 3 840 pixels
Height                         : 2 160 pixels
Display aspect ratio           : 16:9
Frame rate mode                : Constant
Frame rate                     : 59.940 (60000/1001) FPS
Color space                    : YUV
Chroma subsampling             : 4:2:0
Bit depth                      : 10 bits
Bits/(Pixel*Frame)             : 0.064
Stream size                    : 874 MiB (86%)
Default                        : Yes
Forced                         : No
Color range                    : Limited

Audio #1
ID                             : 2
Format                         : PCM
Format settings                : Little / Signed
Codec ID                       : A_PCM/INT/LIT
Duration                       : 3 min 51 s
Bit rate mode                  : Constant
Bit rate                       : 4 608 kb/s
Channel(s)                     : 2 channels
Sampling rate                  : 96.0 kHz
Frame rate                     : 25.002 FPS (3840 SPF)
Bit depth                      : 24 bits
Delay relative to video        : -774 ms
Stream size                    : 127 MiB (13%)
Title                          : 24-bit 96 kHz
Language                       : English
Default                        : Yes
Forced                         : No

Audio #2
ID                             : 3
Format                         : AC-3
Format/Info                    : Audio Coding 3
Commercial name                : Dolby Digital
Codec ID                       : A_AC3
Duration                       : 3 min 51 s
Bit rate mode                  : Constant
Bit rate                       : 384 kb/s
Channel(s)                     : 6 channels
Channel layout                 : L R C LFE Ls Rs
Sampling rate                  : 48.0 kHz
Frame rate                     : 31.250 FPS (1536 SPF)
Bit depth                      : 32 bits
Compression mode               : Lossy
Delay relative to video        : -774 ms
Stream size                    : 10.6 MiB (1%)
Language                       : English
Service kind                   : Complete Main
Default                        : No
Forced                         : No

Text
ID                             : 4
Format                         : UTF-8
Codec ID                       : S_TEXT/UTF8
Codec ID/Info                  : UTF-8 Plain Text
Duration                       : 3 min 26 s
Bit rate                       : 58 b/s
Frame rate                     : 0.242 FPS
Count of elements              : 50
Stream size                    : 1.47 KiB (0%)
Title                          : Lyrics
Language                       : English
Default                        : No
Forced                         : No</pre>
</div></div>
</div><br>
<div class="bbCodeBlock bbCodeVfcHH HiddenContent">
<div class="attribution type">Hidden Content:</div>
<blockquote>You must reply before you can see the hidden data contained here.</blockquote>
</div>
<div class="messageTextEndMarker">&nbsp;</div>
</blockquote>
</article>]]></description>
                <author><![CDATA[ADHDerby]]></author>
                </item>

                </channel></rss>